<!DOCTYPE svg PUBLIC "-//W3C//DTD SVG 1.1//EN" "http://www.w3.org/Graphics/SVG/1.1/DTD/svg11.dtd">
<!-- Uploaded to: SVG Repo, www.svgrepo.com, Transformed by: SVG Repo Mixer Tools -->
<svg fill="#ffffff" height="800px" width="800px" version="1.1" id="Layer_1" xmlns="http://www.w3.org/2000/svg" xmlns:xlink="http://www.w3.org/1999/xlink" viewBox="0 0 512.001 512.001" xml:space="preserve" stroke="#ffffff">
<g id="SVGRepo_bgCarrier" stroke-width="0"/>
<g id="SVGRepo_tracerCarrier" stroke-linecap="round" stroke-linejoin="round"/>
<g id="SVGRepo_iconCarrier"> <g> <g> <path d="M505.089,239.318c-4.225-4.225-9.83-6.661-15.812-6.881c-0.097-0.005-0.196-0.01-0.295-0.012 c-0.053-0.002-0.105-0.004-0.157-0.004c-0.07-0.003-0.138-0.005-0.208-0.008c-1.307-0.181-8.754-2.42-34.229-28.157 c-16.346-16.515-34.171-36.613-48.493-52.762c-9.558-10.778-17.108-19.291-21.604-23.786 c-4.495-4.495-13.008-12.046-23.785-21.603c-16.149-14.322-36.248-32.146-52.762-48.492 c-25.934-25.67-28.008-33.036-28.155-34.171c-0.002-0.095-0.005-0.192-0.01-0.289c-0.001-0.031-0.001-0.061-0.003-0.092 c-0.002-0.124-0.008-0.249-0.015-0.371c-0.227-5.97-2.663-11.562-6.878-15.775C268.228,2.455,262.303,0.001,256,0.001 s-12.229,2.455-16.681,6.91c-4.217,4.215-6.653,9.804-6.88,15.771c-0.008,0.126-0.013,0.251-0.015,0.377 c-0.002,0.033-0.003,0.066-0.004,0.1c-0.003,0.075-0.005,0.149-0.008,0.225c-0.18,1.301-2.409,8.745-28.157,34.23 c-16.515,16.346-36.613,34.171-52.762,48.492c-10.778,9.557-19.29,17.107-23.785,21.603c-4.497,4.495-12.046,13.009-21.604,23.786 c-14.322,16.149-32.146,36.247-48.493,52.762c-25.663,25.928-33.031,28.008-34.17,28.156c-0.089,0.001-0.172,0.004-0.243,0.008 c-0.06,0.001-0.12,0.003-0.183,0.005c-0.096,0.002-0.193,0.007-0.289,0.012c-5.983,0.218-11.59,2.655-15.815,6.88 C2.455,243.773,0,249.699,0,256.001s2.455,12.228,6.911,16.683c4.224,4.224,9.83,6.661,15.811,6.881 c0.114,0.007,0.228,0.011,0.343,0.013c0.035,0.001,0.07,0.002,0.104,0.003c0.07,0.003,0.141,0.005,0.211,0.008 c1.3,0.179,8.74,2.404,34.23,28.157c16.345,16.515,34.17,36.612,48.492,52.762c9.558,10.778,17.108,19.291,21.604,23.786 c4.495,4.495,13.007,12.044,23.782,21.599c16.149,14.322,36.249,32.146,52.764,48.494c25.934,25.669,28.01,33.036,28.158,34.173 c0.002,0.104,0.005,0.21,0.011,0.321l-0.003-0.117h0.001c0.001,0.058,0.002,0.117,0.005,0.177c0.002,0.125,0.007,0.25,0.015,0.372 c0.227,5.97,2.663,11.563,6.878,15.776c4.455,4.457,10.381,6.912,16.684,6.912s12.228-2.455,16.681-6.91 c4.217-4.215,6.653-9.805,6.88-15.773c0.008-0.115,0.013-0.231,0.015-0.347c0.002-0.042,0.003-0.083,0.004-0.125 c0.003-0.077,0.007-0.152,0.009-0.228c0.181-1.305,2.416-8.752,28.158-34.231c16.516-16.348,36.614-34.172,52.764-48.494 c10.775-9.556,19.286-17.103,23.782-21.599c4.497-4.495,12.046-13.009,21.604-23.786c14.321-16.149,32.145-36.247,48.492-52.762 c25.669-25.933,33.035-28.008,34.17-28.155c0.083-0.001,0.168-0.004,0.254-0.008c0.05-0.001,0.102-0.003,0.152-0.005 c0.103-0.002,0.206-0.005,0.308-0.012c5.983-0.219,11.591-2.655,15.815-6.88c4.457-4.456,6.912-10.381,6.912-16.683 C512,249.699,509.545,243.773,505.089,239.318z M54.932,282.317c-17.859-16.299-25.593-19.018-31.088-19.153h-0.001 c-0.057-0.003-0.114-0.004-0.171-0.007c-0.084-0.004-0.17-0.008-0.255-0.01c-1.854-0.046-3.59-0.785-4.887-2.082 c-1.354-1.354-2.099-3.151-2.099-5.065s0.745-3.711,2.098-5.064c1.297-1.297,3.032-2.036,4.885-2.082 c0.094-0.002,0.19-0.007,0.284-0.012l0.095-0.003c0.016,0,0.033-0.001,0.049-0.001c6.724-0.165,16.785-4.184,44.65-32.221 c16.877-16.981,35.189-37.629,49.903-54.221c9.004-10.154,16.78-18.922,20.929-23.07c4.148-4.148,12.917-11.924,23.07-20.928 c16.591-14.713,37.239-33.025,54.221-49.903c28.015-27.843,32.049-37.911,32.221-44.635c0.002-0.046,0.004-0.092,0.005-0.139 c0.005-0.102,0.011-0.206,0.013-0.308c0.045-1.852,0.784-3.586,2.082-4.883c1.353-1.354,3.15-2.099,5.064-2.099 c1.913,0,3.711,0.745,5.065,2.1c1.296,1.295,2.034,3.029,2.08,4.881c0.002,0.103,0.007,0.207,0.013,0.309 c0.001,0.045,0.003,0.091,0.005,0.137c0.14,5.495,2.867,13.23,19.153,31.074L54.932,282.317z M68.494,295.385 c-0.577-0.581-1.136-1.136-1.697-1.696L293.688,66.797c0.561,0.562,1.115,1.121,1.697,1.698 c8.747,8.693,18.465,17.764,28.102,26.53L95.024,323.487C86.258,313.851,77.187,304.132,68.494,295.385z M118.395,349.605 c-3.896-4.394-8.05-9.075-12.357-13.894l229.671-229.672c4.82,4.308,9.501,8.462,13.895,12.358 c6.42,5.694,12.281,10.893,16.776,14.997L133.393,366.382C129.288,361.887,124.089,356.025,118.395,349.605z M162.39,393.6 c-6.727-5.966-12.836-11.384-17.406-15.573l233.041-233.042c4.191,4.57,9.61,10.681,15.578,17.41 c3.724,4.2,7.681,8.66,11.784,13.254L175.649,405.389C171.054,401.283,166.591,397.325,162.39,393.6z M216.612,443.504 c-8.938-8.884-18.892-18.161-28.736-27.106l228.521-228.521c8.946,9.845,18.224,19.799,27.109,28.739 c0.37,0.372,0.725,0.725,1.09,1.089L217.704,444.597C217.339,444.231,216.987,443.876,216.612,443.504z M493.47,261.066 c-1.297,1.297-3.032,2.035-4.887,2.082c-0.082,0.002-0.163,0.005-0.245,0.01c-0.004,0-0.01,0.001-0.014,0.001 c-0.053,0.001-0.105,0.003-0.16,0.005c-0.003,0-0.005,0.001-0.008,0.001c-6.724,0.165-16.785,4.184-44.65,32.221 c-16.877,16.981-35.188,37.629-49.902,54.221c-9.004,10.153-16.781,18.922-20.93,23.071c-4.148,4.147-12.914,11.922-23.066,20.924 c-16.592,14.714-37.24,33.026-54.223,49.905c-28.04,27.867-32.058,37.93-32.223,44.654c0,0.019-0.001,0.036-0.001,0.054 l-0.001,0.018c-0.001,0.004-0.001,0.009-0.001,0.014c-0.008,0.115-0.013,0.23-0.015,0.346c-0.046,1.852-0.784,3.586-2.082,4.884 c-1.352,1.352-3.15,2.097-5.063,2.097c-1.914,0-3.711-0.745-5.066-2.1c-1.296-1.295-2.034-3.029-2.08-4.881 c-0.003-0.115-0.008-0.231-0.015-0.345c-0.001-0.007-0.001-0.013-0.001-0.02v-0.007c-0.001-0.02-0.001-0.041-0.001-0.06 c-0.137-5.56-2.924-13.414-19.736-31.721l227.335-227.338c18.306,16.812,26.161,19.599,31.72,19.736 c0.047,0.001,0.106,0.004,0.159,0.005c0.09,0.005,0.18,0.009,0.269,0.011c1.853,0.046,3.589,0.785,4.887,2.082 c1.353,1.353,2.098,3.15,2.098,5.064C495.569,257.914,494.824,259.712,493.47,261.066z"/> </g> </g> </g>
</svg>