<!DOCTYPE svg PUBLIC "-//W3C//DTD SVG 1.1//EN" "http://www.w3.org/Graphics/SVG/1.1/DTD/svg11.dtd">
<!-- Uploaded to: SVG Repo, www.svgrepo.com, Transformed by: SVG Repo Mixer Tools -->
<svg fill="#ffffff" height="800px" width="800px" version="1.1" id="Layer_1" xmlns="http://www.w3.org/2000/svg" xmlns:xlink="http://www.w3.org/1999/xlink" viewBox="0 0 512 512" xml:space="preserve" stroke="#ffffff">
<g id="SVGRepo_bgCarrier" stroke-width="0"/>
<g id="SVGRepo_tracerCarrier" stroke-linecap="round" stroke-linejoin="round"/>
<g id="SVGRepo_iconCarrier"> <g> <g> <path d="M480.12,268.017l-36.207-36.207c-0.034-0.034-0.072-0.063-0.107-0.096L214.728,2.626C213.175,1.01,210.996,0,208.577,0 h-59.733h-51.2H37.911c-4.71,0-8.533,3.814-8.533,8.533v443.733c0,0.006,0.001,0.011,0.001,0.017v51.183 c0,4.719,3.823,8.533,8.533,8.533c4.71,0,8.533-3.814,8.533-8.533V460.8h17.067v42.667c0,4.719,3.823,8.533,8.533,8.533 s8.533-3.814,8.533-8.533V460.8h17.066h0.001v42.667c0,4.719,3.823,8.533,8.533,8.533c4.71,0,8.533-3.814,8.533-8.533V460.8 h17.067v42.667c0,4.719,3.823,8.533,8.533,8.533s8.533-3.814,8.533-8.533V460.8h17.067v42.667c0,4.719,3.823,8.533,8.533,8.533 c4.71,0,8.533-3.814,8.533-8.533V460.8h17.067v42.667c0,4.719,3.823,8.533,8.533,8.533s8.533-3.814,8.533-8.533v-51.2 c0-0.006-0.001-0.011-0.001-0.017v-181.75l94.055,94.063c0.014,0.014,0.029,0.025,0.043,0.039l36.165,36.157 c1.664,1.664,3.849,2.5,6.033,2.5s4.369-0.836,6.033-2.5c3.337-3.336,3.337-8.73,0-12.066l-30.169-30.162l12.067-12.067 l30.169,30.162c1.664,1.664,3.849,2.5,6.033,2.5c2.185,0,4.369-0.836,6.033-2.5c3.336-3.336,3.336-8.73,0-12.066l-30.17-30.162 l12.072-12.073l30.169,30.169c1.664,1.664,3.849,2.5,6.033,2.5s4.369-0.836,6.033-2.5c3.337-3.337,3.337-8.73,0-12.066 l-30.169-30.169l12.071-12.071l30.166,30.173c1.664,1.664,3.849,2.5,6.033,2.5c2.185,0,4.369-0.836,6.033-2.5 c3.336-3.336,3.336-8.73,0-12.066l-30.167-30.174l12.068-12.069l30.174,30.167c1.664,1.664,3.849,2.5,6.033,2.5 c2.185,0,4.369-0.836,6.033-2.5c3.336-3.336,3.336-8.73,0-12.066l-30.175-30.168l12.07-12.071l30.171,30.171 c1.664,1.664,3.849,2.5,6.033,2.5c2.185,0,4.369-0.836,6.033-2.5C483.457,276.746,483.457,271.353,480.12,268.017z M425.811,237.85l-29.559,29.559L217.112,88.27V29.142L425.811,237.85z M360.054,303.608l-6.409-6.409v-48.265l30.541,30.541 L360.054,303.608z M295.38,238.935h41.198v41.198L295.38,238.935z M326.578,221.868h-41.2v-41.2L326.578,221.868z M217.112,112.402l41.2,41.2h-41.2V112.402z M268.312,170.668v41.198l-41.198-41.198H268.312z M106.178,443.733v-5l34.133-34.133 v39.133H106.178z M109.711,332.8l30.6-30.6V363.4L109.711,332.8z M136.779,384l-30.601,30.601v-61.203L136.779,384z M106.178,312.201v-61.203l30.601,30.601L106.178,312.201z M109.711,230.4l30.6-30.6V261L109.711,230.4z M106.178,209.801v-61.203 l30.601,30.601L106.178,209.801z M109.711,128l30.6-30.6V158.6L109.711,128z M106.178,107.401V46.199L136.779,76.8 L106.178,107.401z M140.311,17.067V56.2l-34.133-34.133v-5H140.311z M46.444,17.067h42.667v8.508c0,0.017,0,0.034,0,0.051v102.349 c0,0.017,0,0.034,0,0.051v102.349c0,0.017,0,0.034,0,0.051v102.349c0,0.017,0,0.034,0,0.051v102.349c0,0.017,0,0.034,0,0.051 v8.508H46.444V17.067z M200.044,443.733h-42.667v-59.67c0-0.043,0-0.085,0-0.128V281.664c0-0.043,0-0.085,0-0.128V179.264 c0-0.043,0-0.085,0-0.128V76.864c0-0.043,0-0.085,0-0.128v-59.67h42.667V443.733z M217.112,184.799l53.574,53.574 c0.086,0.09,0.174,0.178,0.264,0.264l68.003,68.003c0.086,0.09,0.174,0.178,0.264,0.264l8.771,8.771l-12.678,12.678 c-0.003,0.003-0.006,0.005-0.009,0.008s-0.005,0.006-0.008,0.009l-18.085,18.085L217.112,246.367V184.799z"/> </g> </g> </g>
</svg>