<!DOCTYPE svg PUBLIC "-//W3C//DTD SVG 1.1//EN" "http://www.w3.org/Graphics/SVG/1.1/DTD/svg11.dtd">
<!-- Uploaded to: SVG Repo, www.svgrepo.com, Transformed by: SVG Repo Mixer Tools -->
<svg fill="#ffffff" width="800px" height="800px" viewBox="0 0 24 24" xmlns="http://www.w3.org/2000/svg" stroke="#ffffff">
<g id="SVGRepo_bgCarrier" stroke-width="0"/>
<g id="SVGRepo_tracerCarrier" stroke-linecap="round" stroke-linejoin="round"/>
<g id="SVGRepo_iconCarrier">
<path d="M9,6a1,1,0,0,1,1-1h4a1,1,0,0,1,0,2H10A1,1,0,0,1,9,6ZM23,2a1,1,0,0,1-1,1H21V22a1,1,0,0,1-2,0V11H5V22a1,1,0,0,1-2,0V3H2A1,1,0,0,1,2,1H22A1,1,0,0,1,23,2ZM19,3H5V9H19Z"/>
</g>
</svg>